<?xml version="1.0" encoding="UTF-8" standalone="no"?>
<!-- Created with Inkscape (http://www.inkscape.org/) -->

<svg
   xmlns:dc="http://purl.org/dc/elements/1.1/"
   xmlns:cc="http://creativecommons.org/ns#"
   xmlns:rdf="http://www.w3.org/1999/02/22-rdf-syntax-ns#"
   xmlns:svg="http://www.w3.org/2000/svg"
   xmlns="http://www.w3.org/2000/svg"
   xmlns:sodipodi="http://sodipodi.sourceforge.net/DTD/sodipodi-0.dtd"
   xmlns:inkscape="http://www.inkscape.org/namespaces/inkscape"
   width="210mm"
   height="297mm"
   viewBox="0 0 210 297"
   version="1.1"
   id="svg8"
   inkscape:version="0.92.1 r15371"
   sodipodi:docname="drawing.svg">
  <defs
     id="defs2" />
  <sodipodi:namedview
     id="base"
     pagecolor="#ffffff"
     bordercolor="#666666"
     borderopacity="1.0"
     inkscape:pageopacity="0.0"
     inkscape:pageshadow="2"
     inkscape:zoom="0.98994949"
     inkscape:cx="452.25829"
     inkscape:cy="408.40652"
     inkscape:document-units="mm"
     inkscape:current-layer="layer1"
     showgrid="false"
     inkscape:window-width="1680"
     inkscape:window-height="987"
     inkscape:window-x="-8"
     inkscape:window-y="-8"
     inkscape:window-maximized="1" />
  <metadata
     id="metadata5">
    <rdf:RDF>
      <cc:Work
         rdf:about="">
        <dc:format>image/svg+xml</dc:format>
        <dc:type
           rdf:resource="http://purl.org/dc/dcmitype/StillImage" />
        <dc:title></dc:title>
      </cc:Work>
    </rdf:RDF>
  </metadata>
  <g
     inkscape:label="Layer 1"
     inkscape:groupmode="layer"
     id="layer1">
    <flowRoot
       xml:space="preserve"
       id="flowRoot3680"
       style="font-style:normal;font-weight:normal;font-size:40px;line-height:1.25;font-family:sans-serif;letter-spacing:0px;word-spacing:0px;fill:#000000;fill-opacity:1;stroke:none"
       transform="scale(0.26458333)"><flowRegion
         id="flowRegion3682"><rect
           id="rect3684"
           width="477.14285"
           height="462.85715"
           x="145.71428"
           y="211.09111" /></flowRegion><flowPara
         id="flowPara3686" /><flowPara
         id="flowPara3688" /></flowRoot>    <g
       aria-label="M"
       transform="matrix(4.8764629,0,0,4.2286372,-418.80236,-445.75127)"
       style="font-style:normal;font-weight:normal;font-size:40px;line-height:1.25;font-family:sans-serif;letter-spacing:0px;word-spacing:0px;fill:#000000;fill-opacity:1;stroke:none"
       id="flowRoot3690">
      <path
         d="m 115.51953,167.58501 h -3.86719 v -25.05859 c -3.21511,6.9123 -6.32693,13.80808 -9.59514,20.7216 l -8.822825,-20.7216 v 25.05859 h -3.613281 v -29.08203 l 0.121478,-12.51452 12.905868,28.70592 6.37151,-15.38112 2.0763,-5.10007 4.42328,4.28975 z"
         id="path3724"
         inkscape:connector-curvature="0"
         sodipodi:nodetypes="cccccccccccccc" />
    </g>
    <flowRoot
       xml:space="preserve"
       id="flowRoot3706"
       style="fill:black;fill-opacity:1;stroke:none;font-family:sans-serif;font-style:normal;font-weight:normal;font-size:40px;line-height:1.25;letter-spacing:0px;word-spacing:0px"><flowRegion
         id="flowRegion3708"><rect
           id="rect3710"
           width="168.57143"
           height="194.28572"
           x="125.71429"
           y="173.94826" /></flowRegion><flowPara
         id="flowPara3712"></flowPara></flowRoot>    <flowRoot
       xml:space="preserve"
       id="flowRoot3714"
       style="fill:black;fill-opacity:1;stroke:none;font-family:sans-serif;font-style:normal;font-weight:normal;font-size:40px;line-height:1.25;letter-spacing:0px;word-spacing:0px"><flowRegion
         id="flowRegion3716"><rect
           id="rect3718"
           width="73.488594"
           height="48.234783"
           x="85.862968"
           y="167.42046" /></flowRegion><flowPara
         id="flowPara3720"></flowPara></flowRoot>    <path
       style="fill:#000000;stroke-width:0.37307346"
       d="m 111.70509,133.15285 c -0.0302,-1.26664 0.66722,-1.91043 2.14411,-1.97915 l 1.05985,-0.0493 0.0575,-1.50729 c 0.0541,-1.41416 0.11233,-1.52759 0.94401,-1.83456 1.14179,-0.42148 1.26029,-0.60091 0.8674,-1.31421 -0.41496,-0.75325 0.10284,-1.97934 1.0633,-2.51733 0.61184,-0.34274 0.72632,-0.60364 0.62451,-1.42372 -0.0685,-0.55227 0.12322,-1.62318 0.42604,-2.37974 0.41212,-1.02961 0.40291,-1.41506 -0.0367,-1.53243 -1.43238,-0.38233 -0.85833,-3.04203 0.85507,-3.96111 0.917,-0.4919 0.98695,-0.69784 1.40203,-4.12755 0.43953,-3.63151 0.34969,-4.42155 -0.39194,-3.44714 -0.58196,0.76377 -1.67295,0.61928 -2.01669,-0.26761 -0.40757,-1.05172 0.7383,-2.4705 2.21685,-2.74491 1.34711,-0.24995 2.01972,-1.30636 1.62499,-2.55197 -0.17669,-0.55608 -7.3e-4,-1.19509 0.56177,-2.043359 0.45005,-0.67876 0.72206,-1.3164 0.60461,-1.41692 -0.46984,-0.40192 0.34037,-2.49315 1.23819,-3.19604 0.62347,-0.48813 0.93635,-0.96915 1.07598,-1.65407 0.28846,-1.41503 1.8519,-3.3354 2.76123,-3.39155 0.5988,-0.0369 0.96695,-0.37602 1.79168,-1.6499 0.90739,-1.401621 1.19355,-1.632086 2.27314,-1.832547 0.67932,-0.126055 1.43141,-0.0613 1.67134,0.14394 0.28027,0.239816 0.63233,0.115461 0.98484,-0.347748 0.83389,-1.095835 2.6003,-1.513237 3.12313,-0.73811 0.30399,0.450591 0.67279,0.509391 1.17937,0.188112 1.10505,-0.700822 2.21295,-0.572193 2.40148,0.278816 0.12079,0.54526 0.38082,0.629567 1.08095,0.350627 0.96452,-0.384352 2.15799,0.278346 1.94331,1.079127 -0.0794,0.29409 0.18434,0.49671 0.71411,0.54958 0.58815,0.0587 0.89012,0.314553 1.01007,0.855833 0.0939,0.4247 0.46632,0.87435 0.82715,0.99929 0.36082,0.12499 0.74778,0.50957 0.85993,0.85479 0.1121,0.3452 0.47766,0.79998 0.81225,1.01065 0.33462,0.21062 0.59667,0.81147 0.58232,1.33501 -0.0244,0.88823 0.064,0.92725 1.31956,0.5826 0.73994,-0.20366 1.57224,-0.17536 1.84931,0.0617 0.27707,0.23703 0.72495,0.36117 0.99523,0.2762 0.27049,-0.0846 1.26459,0.3586 2.20939,0.98644 1.43656,0.95469 1.87948,1.53452 2.70465,3.54072 0.54278,1.31952 1.11398,2.654969 1.26942,2.967659 0.33071,0.6653 1.30608,0.229 1.79911,-0.80479 0.7176,-1.504469 2.94726,-3.099559 5.14605,-3.681469 3.41238,-0.903 4.32744,-2.78021 1.19332,-2.44796 l -1.4774,0.15664 2.39532,-3.12609 2.3953,-3.12605 0.33318,1.36219 c 0.52221,2.13219 0.8294,2.17267 1.5961,0.2104 0.35947,-0.91998 0.75505,-1.925553 0.87914,-2.234643 0.1745,-0.43483 0.30404,-0.3577 0.57268,0.3414 0.48698,1.267043 1.65911,2.167433 2.87188,2.206213 l 1.0316,0.0329 -1.53278,1.00604 c -2.72886,1.79118 -2.78118,2.6977 -0.14583,2.52559 0.83534,-0.0545 0.81232,-0.009 -1.55732,3.12585 l -2.40524,3.181169 -0.16781,-1.564059 c -0.20583,-1.9178 -0.62745,-2.34079 -1.36598,-1.37036 -0.52783,0.69301 -0.88247,3.382489 -0.49064,3.717719 0.37684,0.32236 -1.29265,4.32129 -2.16925,5.19608 -0.48481,0.48367 -0.95997,1.17279 -1.05613,1.53122 -0.19256,0.71796 -0.0767,0.7693 3.41325,1.51277 2.0239,0.43114 2.65206,0.76753 3.8357,2.05452 0.77847,0.84646 1.39783,1.78291 1.37629,2.08109 -0.0215,0.29817 0.18731,0.7362 0.46465,0.9731 0.27711,0.23706 0.47851,1.09357 0.44765,1.90339 -0.0528,1.38794 -0.006,1.45901 0.83786,1.23857 0.54994,-0.14447 1.07263,0.031 1.35833,0.45439 0.25538,0.37846 0.63099,0.59404 0.83489,0.47876 0.20382,-0.11521 0.75544,0.12477 1.22586,0.53354 0.47035,0.40868 1.14978,0.98389 1.51032,1.27751 0.36073,0.29347 0.77513,0.66225 0.92469,0.81455 0.14848,0.15378 0.6277,0.41492 1.0652,0.58023 0.57274,0.21656 0.77306,0.6085 0.71589,1.40097 -0.0564,0.78147 0.10294,1.09951 0.54876,1.0977 0.75394,-0.003 1.0959,1.1819 0.69949,2.42433 -0.18917,0.59292 -0.057,0.96265 0.42262,1.18243 0.82505,0.378 0.81352,2.29662 -0.0205,3.39242 -0.35255,0.46323 -0.39267,0.85429 -0.11247,1.09405 0.23991,0.20524 0.4586,0.97095 0.48589,1.70155 0.0437,1.169 -0.10476,1.50197 -1.23784,2.77523 -0.92146,1.03569 -1.23718,1.57946 -1.11015,1.91361 0.0974,0.25673 -0.0107,0.96848 -0.23679,1.58178 -0.34026,0.91603 -0.66652,1.26338 -1.82758,1.94657 -0.91509,0.53802 -1.4752,1.06834 -1.5879,1.50353 -0.28426,1.09549 -0.80508,1.58944 -2.11339,2.00231 -0.67955,0.21449 -1.61146,0.81103 -2.07085,1.32574 -0.51957,0.58319 -1.13723,0.90008 -1.63549,0.84109 -1.23179,-0.14592 -2.06349,0.77433 -2.00962,2.22279 0.0595,1.59022 -1.00636,3.07745 -2.06214,2.87725 -0.89025,-0.16872 -1.25446,-1.2691 -0.67285,-2.03329 0.74134,-0.97462 -0.007,-0.90052 -3.26071,0.32234 -3.0741,1.15499 -3.24918,1.27097 -3.50887,2.32518 -0.49317,2.00212 -2.81798,3.12216 -3.49041,1.68168 -0.2091,-0.44782 -0.41592,-0.44903 -0.75421,-0.004 -0.25642,0.33687 -1.24317,0.83314 -2.1928,1.10277 -0.95723,0.27179 -1.69784,0.67968 -1.66198,0.91534 0.0357,0.23373 -0.23431,0.81786 -0.59971,1.298 -0.47996,0.63048 -0.87454,0.79686 -1.42119,0.59893 -0.89145,-0.32277 -1.02801,-0.19345 -1.17964,1.11672 -0.10668,0.92215 -0.20139,1.01255 -1.48355,1.41718 l -1.36947,0.4322 0.17024,1.05751 c 0.21261,1.32032 -0.10572,2.10016 -1.11922,2.74304 -0.82096,0.52068 -1.4243,-0.10875 -1.46405,-1.5273 -0.0825,-2.94562 -4.07788,-7.43871 -14.69654,-16.52719 -11.60829,-9.93724 -17.42687,-13.89523 -19.96992,-13.58951 -1.86945,0.22475 -1.97146,0.17842 -1.99731,-0.90545 z m 11.25474,-10.26336 c 1.28168,-0.45325 1.73287,-0.97428 1.72024,-1.98689 -0.0205,-1.6524 2.36619,-3.33186 3.43526,-2.41729 0.77786,0.66622 0.21535,2.75915 -0.96659,3.59476 -1.93647,1.3691 -1.10098,4.27933 1.03502,3.60526 1.1259,-0.35528 1.34165,-0.56205 1.59071,-1.52454 0.24255,-0.93537 -0.73875,-1.24507 -1.76861,-0.55826 l -0.87498,0.58349 0.4268,-1.14896 c 0.23467,-0.63197 0.72961,-1.54683 1.09968,-2.03314 0.37008,-0.48628 0.59845,-0.95747 0.50736,-1.04716 -0.0911,-0.0896 -0.17786,-0.79931 -0.19266,-1.57706 -0.0266,-1.38175 0.002,-1.43491 1.25461,-2.32725 0.70495,-0.5023 1.81781,-1.47114 2.47299,-2.15297 l 1.19128,-1.23979 0.16084,2.29831 c 0.0883,1.26407 0.27494,2.14831 0.41437,1.96503 0.13954,-0.18329 0.13108,-0.74351 -0.0187,-1.24488 -0.27366,-0.91744 0.29497,-3.67894 0.93116,-4.5184 0.18813,-0.24821 0.60516,-0.22618 0.92673,0.0488 1.03249,0.88318 1.4575,-0.6696 0.59769,-2.18342 -0.36252,-0.63833 -0.29527,-1.00428 0.33633,-1.83435 0.43406,-0.57037 1.20484,-2.3116 1.71279,-3.86943 0.90203,-2.76628 0.971,-2.88159 2.9544,-4.939419 1.11694,-1.15885 2.71677,-2.55045 3.55508,-3.09244 1.70759,-1.10396 2.18011,-2.19694 0.91604,-2.11887 -0.48046,0.0297 -0.7386,-0.18486 -0.84141,-0.69949 -0.10274,-0.51386 -0.40689,-0.76796 -0.98884,-0.82573 -0.60241,-0.0602 -0.82748,-0.25966 -0.79528,-0.70489 0.0329,-0.45415 -0.21818,-0.59789 -0.93422,-0.53542 -0.54091,0.0471 -1.13667,-0.20082 -1.33136,-0.55416 -0.21035,-0.38202 -0.61163,-0.5186 -0.99691,-0.33822 -0.3545,0.16581 -0.94091,0.11992 -1.30305,-0.10182 -0.42882,-0.26255 -1.02183,-0.13969 -1.70017,0.35226 -0.69932,0.50716 -1.33023,0.6275 -1.91979,0.36614 -0.73398,-0.32538 -1.00758,-0.21918 -1.66681,0.64706 -0.43371,0.57 -1.24608,1.18059 -1.80504,1.357 -0.65975,0.20821 -1.38216,0.80133 -2.05881,1.69045 -0.57369,0.75303 -1.30718,1.4532 -1.6307,1.55533 -0.44559,0.14058 -0.61727,0.37586 -0.70772,0.9699 -0.0656,0.43127 -0.44747,1.14358 -0.84824,1.58289 -0.40084,0.43928 -0.76035,1.23627 -0.79896,1.77101 -0.0386,0.534779 -0.29996,1.274219 -0.58076,1.643179 -0.28078,0.36898 -0.37842,0.95389 -0.2169,1.29982 0.26823,0.57439 -0.009,1.25852 -0.91533,2.26942 -0.18737,0.20937 -0.22843,0.63506 -0.0906,0.94673 0.13798,0.31163 0.27655,0.92299 0.30809,1.35852 0.0479,0.65274 0.35186,0.81185 1.73431,0.90583 0.92236,0.0627 1.72135,0.15196 1.7755,0.19829 0.0542,0.0464 -0.3839,0.47828 -0.97344,0.96008 -0.58953,0.48167 -1.2039,1.18838 -1.36529,1.5704 -0.2556,0.60539 -0.17084,0.64667 0.66293,0.32235 0.52598,-0.20485 1.44414,-0.40242 2.04059,-0.43815 1.03303,-0.0626 1.07017,-0.0216 0.78568,0.87028 -0.16428,0.51487 -0.46081,1.14981 -0.65897,1.41094 -0.19805,0.26123 -0.21997,1.13046 -0.0484,1.93194 0.37619,1.75678 0.1891,2.23334 -1.05853,2.69982 -2.21492,0.828 -2.48074,1.01249 -2.77139,1.92359 -0.15604,0.48915 -0.60768,1.18689 -1.00356,1.55052 l -0.71993,0.66114 -0.0459,-1.22297 c -0.035,-0.93349 -0.19428,-1.1911 -0.67282,-1.08839 -0.91292,0.19593 -1.36467,0.94681 -1.25902,2.09255 0.12737,1.38112 0.71166,1.77017 1.98319,1.32056 z m 35.3978,30.75657 c 0.4255,-0.0711 1.02465,-0.4584 1.33135,-0.8614 0.85499,-1.12339 0.309,-1.90096 -1.07264,-1.52762 l -1.20448,0.32543 1.40158,-1.58653 c 1.22915,-1.39138 1.43771,-1.81913 1.69502,-3.47754 0.32602,-2.10017 0.80606,-2.53226 2.53295,-2.27995 0.61,0.0891 1.36034,-0.20525 2.04661,-0.80332 0.596,-0.51922 1.23366,-0.90379 1.41709,-0.85459 0.1834,0.0495 0.30317,1.00984 0.26629,2.13464 -0.0369,1.12482 0.059,2.00535 0.21299,1.95673 0.15401,-0.0489 0.6585,-0.82744 1.12099,-1.73068 0.46256,-0.90326 0.8761,-1.61228 0.91885,-1.57567 0.043,0.0368 0.28503,0.83807 0.53813,1.78049 0.37877,1.41281 0.5898,1.69481 1.20162,1.60582 0.40814,-0.0596 1.00664,-0.0431 1.32989,0.0363 0.33993,0.0833 0.69855,-0.11833 0.85056,-0.47836 0.14463,-0.3424 0.83228,-0.80236 1.52825,-1.02192 0.69596,-0.21967 1.43612,-0.62363 1.64484,-0.89783 0.20861,-0.27424 0.77609,-0.62375 1.26092,-0.77673 0.48482,-0.15303 1.14358,-0.69402 1.46384,-1.20223 0.32029,-0.50817 0.87383,-1.04502 1.23021,-1.19287 0.46775,-0.19419 0.73075,-0.52861 0.94586,-1.20314 0.16387,-0.5138 0.71907,-1.48741 1.23371,-2.16356 0.58758,-0.77136 0.94589,-1.62158 0.9644,-2.28194 0.0158,-0.57891 0.36457,-1.49376 0.77492,-2.03297 0.61227,-0.80361 0.64824,-1.12939 0.20174,-1.80814 -0.38404,-0.58388 -0.38669,-1.22511 -0.0107,-2.17629 0.29361,-0.74167 0.37473,-1.29836 0.18033,-1.23698 -0.19433,0.0618 -0.39359,-0.4898 -0.44246,-1.22481 -0.0547,-0.82254 -0.33836,-1.42266 -0.73742,-1.56088 -0.35659,-0.12351 -0.70605,-0.68922 -0.77653,-1.25712 -0.0936,-0.75531 -0.27936,-0.98488 -0.69103,-0.85497 -0.40347,0.12768 -0.63504,-0.0638 -0.81785,-0.6752 -0.16314,-0.54435 -0.48924,-0.85192 -0.90287,-0.85023 -0.41076,0.001 -0.70882,-0.27168 -0.81425,-0.747 -0.12301,-0.55627 -0.34043,-0.67756 -0.84101,-0.46983 -0.53663,0.22279 -0.86878,0.81968 -1.62189,2.91465 -1.4412,4.00957 -2.5382,5.50785 -5.5028,7.51584 -1.36819,0.92668 -2.78748,2.07664 -3.15408,2.55549 -0.51559,0.6734 -0.98193,0.82657 -2.05931,0.67627 -1.52956,-0.21336 -2.11435,0.16148 -1.41494,0.90688 0.24794,0.2639 0.44022,0.62297 0.42764,0.79753 -0.0467,0.64625 -2.79215,2.1936 -3.91794,2.20807 -0.64033,0.009 -1.25744,0.13611 -1.37142,0.28399 -0.33137,0.42972 -0.15021,0.43386 1.92773,0.0415 2.09877,-0.39625 2.29657,-0.0365 0.9563,1.73928 -0.38984,0.51634 -0.94047,1.61475 -1.22323,2.44109 -0.50794,1.48296 -0.53145,1.50574 -1.83343,1.77472 -0.7254,0.14987 -1.40213,0.21149 -1.5041,0.13547 -0.10156,-0.0759 -0.48809,0.26076 -0.85814,0.74713 -0.37008,0.48629 -1.10924,1.19212 -1.64196,1.56923 l -0.96902,0.68514 0.35547,-1.03325 c 0.48403,-1.40683 -0.23903,-2.2912 -1.17177,-1.43416 -0.91541,0.84069 -1.07007,2.64241 -0.2846,3.31436 0.7582,0.64933 2.59606,0.0887 2.98872,-0.91113 0.70373,-1.79218 2.29923,-2.89678 3.1423,-2.17553 1.08478,0.9281 0.0575,3.7545 -1.48517,4.0856 -0.93612,0.20098 -1.32122,0.77856 -1.46815,2.20256 -0.13883,1.34527 0.54619,2.12212 1.70184,1.9299 z M 134.62224,129.5294 c 1.03345,-0.2452 1.40862,-0.73553 1.93807,-2.53543 0.40196,-1.36369 0.46633,-1.4447 1.43011,-1.80037 2.40492,-0.8877 2.83874,2.09392 0.54103,3.71843 -1.31306,0.9283 -1.47999,1.19283 -1.57391,2.49386 -0.145,2.00982 2.4068,3.17531 3.90218,1.78225 1.60003,-1.49054 0.92755,-2.78348 -1.1128,-2.13962 -1.32289,0.41739 -1.32588,-0.0435 -0.0119,-1.77037 0.41031,-0.53893 0.68423,-1.60884 0.72484,-2.82904 l 0.065,-1.9624 1.59411,-0.50306 c 0.87674,-0.27665 1.89145,-0.75633 2.25485,-1.06595 0.36334,-0.30968 0.9823,-0.63194 1.37527,-0.71628 0.60697,-0.13022 0.67661,0.20006 0.46338,2.19204 -0.1381,1.28998 -0.12241,2.30481 0.035,2.25519 0.15717,-0.0499 0.34128,-0.85747 0.4089,-1.79513 0.15585,-2.1595 1.1909,-4.14656 2.23977,-4.29981 0.67884,-0.0986 0.74361,-0.27256 0.71788,-1.92029 l -0.0282,-1.81121 1.43218,-1.06572 c 1.50036,-1.11648 2.17727,-2.05767 4.56406,-6.34591 1.28534,-2.30931 1.36274,-2.61012 0.95811,-3.72233 -0.24217,-0.66546 -1.09245,-1.95113 -1.88969,-2.857 -2.26381,-2.57218 -4.62453,-2.50727 -7.74193,0.21287 -1.80769,1.57728 -2.8688,3.57002 -3.39125,6.36812 -0.37949,2.03292 -0.57776,2.48412 -1.32242,3.01065 -0.75985,0.53725 -0.81916,0.69262 -0.44736,1.17228 0.36145,0.4663 0.25956,0.76553 -0.65037,1.90925 -0.62733,0.78867 -1.64032,1.62303 -2.42005,1.99356 -0.73757,0.35048 -1.35027,0.76514 -1.36153,0.92144 -0.0107,0.15631 0.3696,0.0368 0.84648,-0.26571 1.19154,-0.75568 3.41511,-0.4428 3.18465,0.44807 -0.0923,0.35479 -0.32566,0.8574 -0.51982,1.11669 -0.19462,0.25887 -0.42927,1.36919 -0.52257,2.4664 l -0.1697,1.99491 -1.77195,0.30662 c -1.17182,0.20285 -1.78539,0.49544 -1.81204,0.86272 -0.0222,0.30583 -0.3217,0.926 -0.66578,1.37819 -0.58575,0.76886 -0.68356,0.74862 -1.52477,-0.32063 -0.89824,-1.14173 -0.89974,-1.14175 -1.6101,-0.0408 -1.22283,1.89514 -0.18412,3.6504 1.87161,3.16285 z m 16.21471,13.3994 c 1.46558,-0.78618 1.50111,-1.54295 0.10878,-2.3157 -1.11843,-0.62077 -1.14806,-0.70778 -0.52145,-1.53112 0.36541,-0.4801 0.85485,-0.88367 1.0877,-0.89677 0.4148,-0.0233 0.66269,-2.06272 0.40653,-3.34369 -0.0987,-0.49434 0.18955,-0.70612 1.61029,-1.18301 0.95189,-0.31955 2.14126,-0.96617 2.64299,-1.437 0.50178,-0.47092 1.02079,-0.76337 1.15338,-0.64995 0.48642,0.41615 0.76968,2.49107 0.46893,3.43396 -0.64105,2.00932 0.114,0.75034 0.84091,-1.40197 0.96449,-2.85621 1.54957,-3.62848 2.49119,-3.28737 0.65141,0.23592 0.78392,0.14231 1.13432,-0.80089 0.34091,-0.91761 0.63493,-1.15973 2.08806,-1.71953 4.43407,-1.70808 7.45892,-6.78724 6.28187,-10.54796 -0.43355,-1.38619 -0.82863,-1.86909 -2.30048,-2.81438 -0.97718,-0.62768 -2.26677,-1.21619 -2.86561,-1.30796 -0.95162,-0.14589 -1.33422,0.0697 -3.03645,1.71109 -3.63302,3.50327 -4.62333,4.75928 -5.24159,6.64786 -0.31386,0.95892 -0.65656,1.67006 -0.76146,1.58032 -0.10486,-0.0897 -0.8573,-0.0151 -1.67203,0.16588 -1.35019,0.29991 -1.47629,0.399 -1.42455,1.11992 0.083,1.1551 -1.59454,2.64971 -3.73032,3.32367 -0.96174,0.30356 -1.63566,0.64849 -1.49758,0.7666 0.13799,0.11816 1.17642,-0.11685 2.30748,-0.52222 1.74615,-0.62573 2.0579,-0.6203 2.06606,0.0359 0.006,0.42507 -0.17169,1.15694 -0.39328,1.6264 -0.22151,0.46951 -0.42844,1.60639 -0.45978,2.52645 l -0.0569,1.67288 -1.84168,0.51795 c -1.28442,0.36098 -2.07587,0.82491 -2.61535,1.53379 -1.07487,1.41134 -1.41057,1.4141 -1.46309,0.0107 -0.0795,-2.12443 -1.27361,-2.38738 -2.26521,-0.49878 -0.96076,1.8298 0.55254,4.11398 2.46993,3.728 0.98509,-0.19827 1.12222,-0.33359 1.71944,-1.69566 0.84029,-1.91649 1.09222,-2.22676 2.05529,-2.53061 1.03569,-0.32677 1.78764,0.33776 1.75448,1.55067 -0.0319,1.16738 -0.72817,2.15198 -1.66371,2.35278 -1.95585,0.41983 -2.26616,3.80523 -0.41318,4.50773 0.29904,0.11345 0.99062,-0.0336 1.5368,-0.32651 z"
       id="path3745"
       inkscape:connector-curvature="0" />
  </g>
</svg>
